<?xml version="1.0" encoding="UTF-8" standalone="no"?>
<!-- Created with Inkscape (http://www.inkscape.org/) -->

<svg
   version="1.1"
   id="svg3705"
   xml:space="preserve"
   width="682.66669"
   height="682.66669"
   viewBox="0 0 682.66669 682.66669"
   xmlns="http://www.w3.org/2000/svg"
   xmlns:svg="http://www.w3.org/2000/svg"><defs
     id="defs3709"><clipPath
       clipPathUnits="userSpaceOnUse"
       id="clipPath3719"><path
         d="M 0,512 H 512 V 0 H 0 Z"
         id="path3717" /></clipPath><clipPath
       clipPathUnits="userSpaceOnUse"
       id="clipPath3743"><path
         d="M 0,512 H 512 V 0 H 0 Z"
         id="path3741" /></clipPath></defs><g
     id="g3711"
     transform="matrix(1.3333333,0,0,-1.3333333,0,682.66667)"><g
       id="g3713"><g
         id="g3715"
         clip-path="url(#clipPath3719)"><g
           id="g3721"
           transform="translate(269.9014,310.002)"><path
             d="m 0,0 h 106.098 l 40.001,-60 v -240 h -320 v 240 l 40,60 h 105.793"
             style="fill:none;stroke:#000000;stroke-width:20;stroke-linecap:round;stroke-linejoin:round;stroke-miterlimit:22.926;stroke-dasharray:none;stroke-opacity:1"
             id="path3723" /></g><g
           id="g3725"
           transform="translate(96,250.002)"><path
             d="M 0,0 -86,49.651 -22.283,95.959 40,60"
             style="fill:none;stroke:#000000;stroke-width:20;stroke-linecap:round;stroke-linejoin:round;stroke-miterlimit:22.926;stroke-dasharray:none;stroke-opacity:1"
             id="path3727" /></g><g
           id="g3729"
           transform="translate(416,250.002)"><path
             d="M 0,0 86,49.651 22.283,95.959 -40,60"
             style="fill:none;stroke:#000000;stroke-width:20;stroke-linecap:round;stroke-linejoin:round;stroke-miterlimit:22.926;stroke-dasharray:none;stroke-opacity:1"
             id="path3731" /></g></g></g><g
       id="g3733"
       transform="translate(96,250.002)"><path
         d="M 0,0 H 320"
         style="fill:none;stroke:#000000;stroke-width:20;stroke-linecap:round;stroke-linejoin:round;stroke-miterlimit:22.926;stroke-dasharray:none;stroke-opacity:1"
         id="path3735" /></g><g
       id="g3737"><g
         id="g3739"
         clip-path="url(#clipPath3743)"><g
           id="g3745"
           transform="translate(192.3604,475.6426)"><path
             d="m 0,0 c 35.147,35.147 92.132,35.147 127.279,0 35.147,-35.146 35.147,-92.132 0,-127.278 -12.176,-12.177 -26.974,-20.131 -42.576,-23.87 -4.986,-8.642 -9.972,-17.284 -14.96,-25.924 -2.611,-4.664 -9.421,-4.82 -12.165,-0.083 -5.007,8.674 -10.007,17.341 -15.007,26.008 -15.6,3.739 -30.396,11.694 -42.571,23.869 C -35.147,-92.132 -35.147,-35.146 0,0 Z"
             style="fill:none;stroke:#000000;stroke-width:20;stroke-linecap:round;stroke-linejoin:round;stroke-miterlimit:22.926;stroke-dasharray:none;stroke-opacity:1"
             id="path3747" /></g><g
           id="g3749"
           transform="translate(101,130.002)"><path
             d="M 0,0 H 155 V -80 H 0"
             style="fill:none;stroke:#000000;stroke-width:20;stroke-linecap:round;stroke-linejoin:round;stroke-miterlimit:22.926;stroke-dasharray:none;stroke-opacity:1"
             id="path3751" /></g><g
           id="g3753"
           transform="translate(136,90.002)"><path
             d="M 0,0 H 80"
             style="fill:none;stroke:#000000;stroke-width:20;stroke-linecap:round;stroke-linejoin:round;stroke-miterlimit:22.926;stroke-dasharray:none;stroke-opacity:1"
             id="path3755" /></g><g
           id="g3757"
           transform="translate(256,442.0039)"><path
             d="M 0,0 V -60"
             style="fill:none;stroke:#000000;stroke-width:20;stroke-linecap:round;stroke-linejoin:round;stroke-miterlimit:22.926;stroke-dasharray:none;stroke-opacity:1"
             id="path3759" /></g><g
           id="g3761"
           transform="translate(226,412.0039)"><path
             d="M 0,0 H 60"
             style="fill:none;stroke:#000000;stroke-width:20;stroke-linecap:round;stroke-linejoin:round;stroke-miterlimit:22.926;stroke-dasharray:none;stroke-opacity:1"
             id="path3763" /></g></g></g></g></svg>
