<svg width="15" height="15" viewBox="0 0 15 15" fill="none" xmlns="http://www.w3.org/2000/svg">
<path d="M14.7254 8.16286L11.4038 11.4845C11.2207 11.6676 10.9808 11.7591 10.7409 11.7591C10.5009 11.7591 10.261 11.6676 10.0779 11.4845C9.71186 11.1184 9.71186 10.5248 10.0779 10.1586L11.7992 8.43746H0.9375C0.419736 8.43746 0 8.01772 0 7.49996C0 6.98219 0.419736 6.56246 0.9375 6.56246H11.7992L10.0779 4.84127C9.71186 4.47514 9.71186 3.88156 10.0779 3.51544C10.4441 3.14931 11.0377 3.14931 11.4038 3.51544L14.7254 6.83706C15.0915 7.20315 15.0915 7.79677 14.7254 8.16286Z" fill="#FF9C00"/>
</svg>
