<svg width="30" height="30" viewBox="0 0 30 30" fill="none" xmlns="http://www.w3.org/2000/svg">
<path d="M10.668 6.2127C10.4082 6.20699 10.1531 6.28229 9.9382 6.42825C9.72325 6.57421 9.55913 6.78361 9.46864 7.02716C9.37814 7.27071 9.36579 7.53637 9.43328 7.78727C9.50077 8.03817 9.64476 8.2617 9.84522 8.42698L17.4941 14.9797L9.84522 21.5301C9.70655 21.632 9.59042 21.7614 9.50409 21.9103C9.41777 22.0592 9.36311 22.2244 9.34355 22.3953C9.32399 22.5663 9.33994 22.7395 9.39041 22.904C9.44088 23.0685 9.52477 23.2209 9.63684 23.3515C9.74891 23.4821 9.88674 23.5881 10.0417 23.6629C10.1967 23.7378 10.3654 23.7799 10.5374 23.7865C10.7093 23.7931 10.8808 23.7643 11.0411 23.7016C11.2014 23.6389 11.347 23.5438 11.4688 23.4222L20.2261 15.9294C20.3636 15.812 20.474 15.6664 20.5498 15.5022C20.6255 15.338 20.6647 15.1593 20.6647 14.9786C20.6647 14.7978 20.6255 14.6191 20.5498 14.4549C20.474 14.2907 20.3636 14.1449 20.2261 14.0276L11.4688 6.52759C11.2475 6.33109 10.9638 6.21967 10.668 6.2127Z" fill="black"/>
</svg>
