<svg width="30" height="30" viewBox="0 0 30 30" fill="none" xmlns="http://www.w3.org/2000/svg">
<path d="M19.332 23.7873C19.5918 23.793 19.8469 23.7177 20.0618 23.5717C20.2767 23.4258 20.4409 23.2164 20.5314 22.9728C20.6219 22.7293 20.6342 22.4636 20.5667 22.2127C20.4992 21.9618 20.3552 21.7383 20.1548 21.573L12.5059 15.0203L20.1548 8.46987C20.2934 8.36795 20.4096 8.23856 20.4959 8.08968C20.5822 7.9408 20.6369 7.77565 20.6564 7.60467C20.676 7.43368 20.6601 7.26054 20.6096 7.09601C20.5591 6.93147 20.4752 6.77909 20.3632 6.64848C20.2511 6.51787 20.1133 6.41193 19.9583 6.33706C19.8033 6.26218 19.6346 6.22013 19.4626 6.2135C19.2907 6.20686 19.1192 6.23571 18.9589 6.29842C18.7986 6.36113 18.653 6.45625 18.5312 6.57783L9.77392 14.0706C9.63639 14.188 9.52596 14.3336 9.45024 14.4978C9.37451 14.662 9.3353 14.8407 9.3353 15.0214C9.3353 15.2022 9.37451 15.3809 9.45024 15.5451C9.52596 15.7093 9.63639 15.8551 9.77392 15.9724L18.5312 23.4724C18.7525 23.6689 19.0362 23.7803 19.332 23.7873Z" fill="black"/>
</svg>
