<?xml version="1.0" encoding="UTF-8"?>
<svg xmlns="http://www.w3.org/2000/svg" xmlns:xlink="http://www.w3.org/1999/xlink" version="1.1" id="Capa_1" x="0px" y="0px" viewBox="0 0 511.742 511.742" style="enable-background:new 0 0 511.742 511.742;" xml:space="preserve" width="512" height="512">
<g>
	
		<line style="fill:none;stroke:#000000;stroke-width:15;stroke-linecap:round;stroke-linejoin:round;stroke-miterlimit:10;" x1="370.102" y1="222.632" x2="435.525" y2="237.585"/>
	
		<line style="fill:none;stroke:#000000;stroke-width:15;stroke-linecap:round;stroke-linejoin:round;stroke-miterlimit:10;" x1="76.217" y1="237.585" x2="141.514" y2="222.66"/>
	<path style="fill:none;stroke:#000000;stroke-width:15;stroke-linecap:round;stroke-linejoin:round;stroke-miterlimit:10;" d="&#10;&#9;&#9;M181.667,166.283l18.434-2.679c4.166-0.605,7.768-3.222,9.631-6.998L244.4,86.364c4.692-9.507,18.249-9.507,22.942,0l34.667,70.243&#10;&#9;&#9;c1.863,3.775,5.465,6.392,9.631,6.998l77.518,11.264c10.492,1.525,14.681,14.418,7.089,21.819l-56.093,54.677&#10;&#9;&#9;c-2.381,2.321-3.74,5.451-3.855,8.709"/>
	<path style="fill:none;stroke:#000000;stroke-width:15;stroke-linecap:round;stroke-linejoin:round;stroke-miterlimit:10;" d="&#10;&#9;&#9;M175.445,260.171c-0.091-3.293-1.453-6.462-3.858-8.807l-56.093-54.677c-7.592-7.4-3.403-20.294,7.089-21.819l24.961-3.627"/>
	<path style="fill:none;stroke:#000000;stroke-width:15;stroke-linecap:round;stroke-linejoin:round;stroke-miterlimit:10;" d="&#10;&#9;&#9;M128.501,475.387L84.195,465.26c-4.668-1.067-7.978-5.219-7.978-10.008V318.766"/>
	<path style="fill:none;stroke:#000000;stroke-width:15;stroke-linecap:round;stroke-linejoin:round;stroke-miterlimit:10;" d="&#10;&#9;&#9;M435.525,319.085v136.167c0,4.788-3.31,8.941-7.978,10.008l-169.447,38.731c-1.467,0.335-2.99,0.335-4.456,0l-91.089-20.82"/>
	
		<line style="fill:none;stroke:#000000;stroke-width:15;stroke-linecap:round;stroke-linejoin:round;stroke-miterlimit:10;" x1="255.871" y1="419.447" x2="255.871" y2="503"/>
	
		<line style="fill:none;stroke:#000000;stroke-width:15;stroke-linecap:round;stroke-linejoin:round;stroke-miterlimit:10;" x1="255.871" y1="278.649" x2="255.871" y2="384.447"/>
	
		<polyline style="fill:none;stroke:#000000;stroke-width:15;stroke-linecap:round;stroke-linejoin:round;stroke-miterlimit:10;" points="&#10;&#9;&#9;393.021,328.27 501.74,303.801 435.525,237.585 255.871,278.649 76.217,237.585 10.002,303.801 190.169,344.351 255.871,278.649 &#9;&#10;&#9;&#9;"/>
	
		<polyline style="fill:none;stroke:#000000;stroke-width:15;stroke-linecap:round;stroke-linejoin:round;stroke-miterlimit:10;" points="&#10;&#9;&#9;255.871,278.649 321.573,344.351 359.06,335.914 &#9;"/>
	
		<line style="fill:none;stroke:#000000;stroke-width:15;stroke-linecap:round;stroke-linejoin:round;stroke-miterlimit:10;" x1="255.871" y1="7.5" x2="255.871" y2="38.298"/>
	
		<line style="fill:none;stroke:#000000;stroke-width:15;stroke-linecap:round;stroke-linejoin:round;stroke-miterlimit:10;" x1="255.871" y1="7.5" x2="255.871" y2="38.298"/>
	
		<line style="fill:none;stroke:#000000;stroke-width:15;stroke-linecap:round;stroke-linejoin:round;stroke-miterlimit:10;" x1="338.914" y1="72.698" x2="319.118" y2="96.291"/>
	
		<line style="fill:none;stroke:#000000;stroke-width:15;stroke-linecap:round;stroke-linejoin:round;stroke-miterlimit:10;" x1="338.914" y1="72.698" x2="319.118" y2="96.291"/>
	
		<line style="fill:none;stroke:#000000;stroke-width:15;stroke-linecap:round;stroke-linejoin:round;stroke-miterlimit:10;" x1="429.92" y1="106.677" x2="406.328" y2="126.474"/>
	
		<line style="fill:none;stroke:#000000;stroke-width:15;stroke-linecap:round;stroke-linejoin:round;stroke-miterlimit:10;" x1="429.92" y1="106.677" x2="406.328" y2="126.474"/>
	
		<line style="fill:none;stroke:#000000;stroke-width:15;stroke-linecap:round;stroke-linejoin:round;stroke-miterlimit:10;" x1="172.828" y1="72.698" x2="192.624" y2="96.291"/>
	
		<line style="fill:none;stroke:#000000;stroke-width:15;stroke-linecap:round;stroke-linejoin:round;stroke-miterlimit:10;" x1="172.828" y1="72.698" x2="192.624" y2="96.291"/>
	
		<line style="fill:none;stroke:#000000;stroke-width:15;stroke-linecap:round;stroke-linejoin:round;stroke-miterlimit:10;" x1="81.822" y1="106.677" x2="105.414" y2="126.474"/>
	
		<line style="fill:none;stroke:#000000;stroke-width:15;stroke-linecap:round;stroke-linejoin:round;stroke-miterlimit:10;" x1="81.822" y1="106.677" x2="105.414" y2="126.474"/>
</g>















</svg>
