<svg id="Layer_1" height="512" viewBox="0 0 512 512" width="512" xmlns="http://www.w3.org/2000/svg" xmlns:xlink="http://www.w3.org/1999/xlink" data-name="Layer 1"><linearGradient id="GradientFill_1" gradientUnits="userSpaceOnUse" x1="143.599" x2="448.141" y1="312.264" y2="83.574"><stop offset="0" stop-color="#ef3e3d"/><stop offset="1" stop-color="#ffcb27"/></linearGradient><path d="m271.362 208.6h104.879l-3.422 38.719h-98.035zm93.649 119.231 6-60.08h-94.42l4.35 60.08zm102.628-60.08h-76.067l-6 60.08h28.475a45.734 45.734 0 0 0 43.513-31l10.08-29.075zm20.553-59.151-13.445 38.719h-81.368l3.421-38.719zm-84.7-80.511h98.308a10.721 10.721 0 0 1 3.315.572 10.22 10.22 0 0 1 6.322 13l-16.137 46.439h-96.7l4.887-60.008zm-139.355 0h118.8l-4.88 60.008h-108.502l-5.422-60.008zm-122.878 60.011-38.259-110.161a25.128 25.128 0 0 0 -24.228-17.216h-68.531a10.216 10.216 0 1 1 0-20.432h68.531a45.466 45.466 0 0 1 43.5 31.005l19.8 56.936a17.4 17.4 0 0 1 1.972-.143h99.536l5.42 60.011zm20.553 59.222-13.438-38.722h102.436l3.414 38.719zm105.621 152.518a36.025 36.025 0 1 1 -25.4 10.573 35.9 35.9 0 0 1 25.4-10.573zm150.935.143a35.72 35.72 0 1 1 -25.346 10.43 35.878 35.878 0 0 1 25.346-10.43zm-184.046-72.152c-.386.071-.793.142-1.207.214a23.744 23.744 0 0 0 -14.3 7.929 23.539 23.539 0 0 0 17.809 38.791h227.343a10.216 10.216 0 1 1 0 20.432h-227.345a43.869 43.869 0 0 1 -33.9-71.8 43.922 43.922 0 0 1 -6.979-4.072 45.661 45.661 0 0 1 -16.731-22.5l-10.08-29.075h87.1l4.357 60.08z" fill="url(#GradientFill_1)" fill-rule="evenodd"/></svg>