<svg width="30" height="30" viewBox="0 0 30 30" fill="none" xmlns="http://www.w3.org/2000/svg">
<g clip-path="url(#clip0_25_56)">
<path d="M28.8997 15.7864H25.419C25.3122 14.4084 24.2916 13.2808 22.9603 13.0031V7.18564C22.9603 6.86203 22.6979 6.59971 22.3743 6.59971H18.764V5.14752C18.7639 2.30912 16.4435 0 13.5913 0C12.9383 0 12.3131 0.121055 11.7373 0.341777C11.1615 0.121055 10.5364 0 9.88337 0C7.03114 0 4.71077 2.30912 4.71077 5.14752V6.59971H1.10034C0.776728 6.59971 0.514404 6.86203 0.514404 7.18564V27.2211C0.514404 28.7534 1.7628 30 3.29726 30H26.6061C28.1939 30 29.4856 28.7082 29.4856 27.1205V16.3723C29.4856 16.0487 29.2232 15.7864 28.8997 15.7864ZM24.2413 15.7864H20.4015C20.5208 14.8422 21.3363 14.1093 22.3214 14.1093C23.3066 14.1093 24.1221 14.8422 24.2413 15.7864ZM21.7883 7.77158V12.9829C20.4056 13.2216 19.3334 14.3721 19.2239 15.7864H15.7613C15.4377 15.7864 15.1753 16.0488 15.1753 16.3723V27.1205C15.1753 27.7593 15.3844 28.3501 15.7376 28.8282H5.29665V7.77158H8.41864V10.7766C8.41864 11.1002 8.68102 11.3626 9.00458 11.3626C9.32819 11.3626 9.59052 11.1002 9.59052 10.7766V7.77158H17.592V10.7766C17.592 11.1002 17.8544 11.3626 18.178 11.3626C18.5015 11.3626 18.7639 11.1002 18.7639 10.7766V7.77158H21.7883ZM11.7373 1.6251C13.0125 2.29049 13.8841 3.61975 13.8841 5.14752V6.59971H9.59058V5.14752C9.59058 3.61975 10.4622 2.29049 11.7373 1.6251ZM13.5913 1.17188C15.7973 1.17188 17.592 2.95535 17.592 5.14752V6.59971H15.056V5.14752C15.056 3.55928 14.3294 2.13674 13.1897 1.1918C13.3218 1.17861 13.4558 1.17188 13.5913 1.17188ZM9.88337 1.17188C10.0189 1.17188 10.1528 1.17861 10.285 1.19174C9.14526 2.13674 8.4187 3.55922 8.4187 5.14746V6.59965H5.88265V5.14752C5.88259 2.95535 7.67731 1.17188 9.88337 1.17188ZM1.68628 27.2211V7.77158H4.12478V28.8281H3.29726C2.40897 28.8281 1.68628 28.1072 1.68628 27.2211ZM28.3137 27.1205C28.3137 28.062 27.5477 28.8281 26.6061 28.8281H18.0548C17.1133 28.8281 16.3472 28.0621 16.3472 27.1205V16.9583H19.2147V19.2739C19.2147 19.5974 19.477 19.8598 19.8006 19.8598C20.1242 19.8598 20.3865 19.5974 20.3865 19.2739V16.9583H24.2564V19.2739C24.2564 19.5974 24.5187 19.8598 24.8423 19.8598C25.1659 19.8598 25.4282 19.5974 25.4282 19.2739V16.9583H28.3137V27.1205Z" fill="#EF8A2D"/>
</g>
<defs>
<clipPath id="clip0_25_56">
<rect width="30" height="30" fill="white"/>
</clipPath>
</defs>
</svg>
