<svg width="40" height="40" viewBox="0 0 40 40" fill="none" xmlns="http://www.w3.org/2000/svg">
<path d="M11.4382 26.0459L11.4383 26.0461C11.54 26.5526 11.984 26.9168 12.5 26.9168H34.1667C34.6829 26.9168 35.1263 26.5525 35.23 26.0471L35.2302 26.0459L38.5635 9.37919L38.5637 9.37855C38.6264 9.06045 38.5442 8.73125 38.3385 8.4801C38.1325 8.22855 37.8247 8.0835 37.5001 8.0835H9.16671C8.84207 8.0835 8.53431 8.22855 8.3283 8.4801L8.3283 8.48009L8.32748 8.4811C8.12516 8.73078 8.03984 9.05958 8.10499 9.37964C8.10503 9.37981 8.10506 9.37998 8.1051 9.38015L11.4382 26.0459ZM36.1784 10.2502L33.2784 24.7502H13.3883L10.4883 10.2502H36.1784Z" fill="white" stroke="white" stroke-width="0.5"/>
<path d="M11.4383 26.0463L11.4383 26.0459L7.30662 5.38934C7.30661 5.38932 7.30661 5.38929 7.3066 5.38927C7.09665 4.34116 6.16765 3.5803 5.10021 3.58024C5.10017 3.58024 5.10013 3.58024 5.10008 3.58024L2.5004 3.58357L2.50008 3.58357C1.90201 3.58357 1.41675 3.09831 1.41675 2.50024C1.41675 1.90255 1.89993 1.417 2.49991 1.41691L2.49976 1.41691L2.50008 1.66691V1.41691L11.4383 26.0463ZM11.4383 26.0463C11.5423 26.5619 11.995 26.9169 12.5001 26.9169C12.5685 26.9169 12.6405 26.9105 12.7139 26.8951L11.4383 26.0463Z" fill="white" stroke="white" stroke-width="0.5"/>
<path d="M9.16675 30.25H37.5001C38.0982 30.25 38.5834 29.7647 38.5834 29.1667C38.5834 28.5686 38.0982 28.0833 37.5001 28.0833H9.16675C8.84482 28.0833 8.58341 27.8219 8.58341 27.5C8.58341 27.1781 8.84482 26.9167 9.16675 26.9167H12.5001C13.0982 26.9167 13.5834 26.4314 13.5834 25.8333C13.5834 25.2353 13.0982 24.75 12.5001 24.75H9.16675C7.65034 24.75 6.41675 25.9836 6.41675 27.5C6.41675 29.0164 7.65034 30.25 9.16675 30.25Z" fill="white" stroke="white" stroke-width="0.5"/>
<path d="M15.0001 38.3332C13.1617 38.3332 11.6667 36.8382 11.6667 34.9998C11.6667 33.1615 13.1617 31.6665 15.0001 31.6665C16.8384 31.6665 18.3334 33.1615 18.3334 34.9998C18.3334 36.8382 16.8384 38.3332 15.0001 38.3332ZM15.0001 33.3332C14.0817 33.3332 13.3334 34.0815 13.3334 34.9998C13.3334 35.9182 14.0817 36.6665 15.0001 36.6665C15.9184 36.6665 16.6667 35.9182 16.6667 34.9998C16.6667 34.0815 15.9184 33.3332 15.0001 33.3332Z" fill="white"/>
<path d="M30.0001 38.3332C28.1617 38.3332 26.6667 36.8382 26.6667 34.9998C26.6667 33.1615 28.1617 31.6665 30.0001 31.6665C31.8384 31.6665 33.3334 33.1615 33.3334 34.9998C33.3334 36.8382 31.8384 38.3332 30.0001 38.3332ZM30.0001 33.3332C29.0817 33.3332 28.3334 34.0815 28.3334 34.9998C28.3334 35.9182 29.0817 36.6665 30.0001 36.6665C30.9184 36.6665 31.6667 35.9182 31.6667 34.9998C31.6667 34.0815 30.9184 33.3332 30.0001 33.3332Z" fill="white"/>
</svg>
