<svg height="512" viewBox="0 0 100 100" width="512" xmlns="http://www.w3.org/2000/svg"><circle cx="50" cy="50" fill="#3db39e" r="50"/><path d="m97.545 34.522c-1.416-4.353-3.408-8.443-5.893-12.18l-43.767 45.586.088 5.073 2.066-.013z" fill="#37a18e"/><path d="m100.076 19.682-8.916-8.809c-1.217-1.203-3.191-1.203-4.408 0l-38.113 39.258-16.436-16.24c-1.219-1.203-3.191-1.203-4.409 0l-7.903 7.809c-1.217 1.202-1.217 3.152 0 4.354l26.379 26.061c.703.695 1.656.975 2.572.867.916.107 1.869-.172 2.572-.867l48.662-48.078c1.217-1.203 1.217-3.152 0-4.355z" fill="#f8f8f8"/><path d="m51.414 72.115 48.662-48.078c1.217-1.203 1.217-3.152 0-4.355l-1.455-1.438-50.057 49.235-27.568-26.872-1.104 1.092c-1.217 1.202-1.217 3.152 0 4.354l26.378 26.062c.703.695 1.656.975 2.572.867.916.108 1.869-.171 2.572-.867z" fill="#ebebeb"/></svg>